<svg xmlns="http://www.w3.org/2000/svg" xmlns:xlink="http://www.w3.org/1999/xlink" width="500" zoomAndPan="magnify" viewBox="0 0 375 374.999991" height="500" preserveAspectRatio="xMidYMid meet" version="1.0"><defs><clipPath id="279aefc368"><path d="M 85 115 L 315.226562 115 L 315.226562 306.75 L 85 306.75 Z M 85 115 " clip-rule="nonzero"/></clipPath><clipPath id="1d7d6bad81"><path d="M 47 37.5 L 239 37.5 L 239 230 L 47 230 Z M 47 37.5 " clip-rule="nonzero"/></clipPath></defs><g clip-path="url(#279aefc368)"><path fill="#ffffff" d="M 166.464844 306.460938 C 145.679688 306.460938 124.894531 306.570312 104.101562 306.398438 C 96.078125 306.339844 89.242188 301.144531 86.960938 294.183594 C 84.410156 286.386719 86.445312 277.777344 93.230469 273.5625 C 97.070312 271.183594 102.226562 269.957031 106.804688 269.914062 C 144.269531 269.621094 181.726562 269.875 219.195312 269.683594 C 248.386719 269.53125 271.449219 250.265625 277.222656 221.753906 C 284.324219 186.707031 257.421875 153 221.484375 152.441406 C 195.625 152.035156 169.753906 152.359375 143.894531 152.328125 C 135.933594 152.320312 129.957031 148.816406 126.3125 141.703125 C 123.050781 135.324219 123.0625 128.335938 127.964844 123.472656 C 131.902344 119.554688 137.992188 115.613281 143.199219 115.523438 C 171.933594 115.035156 200.769531 114.355469 229.402344 116.351562 C 270.265625 119.199219 304.246094 150.355469 313.097656 190.230469 C 326.265625 249.546875 281.660156 305.800781 220.835938 306.441406 C 202.722656 306.621094 184.59375 306.460938 166.464844 306.460938 Z M 166.464844 306.460938 " fill-opacity="1" fill-rule="nonzero"/></g><g clip-path="url(#1d7d6bad81)"><path fill="#ffffff" d="M 178.457031 228.082031 C 161.5625 228.082031 144.464844 229.765625 127.820312 227.75 C 87.125 222.828125 52.015625 185.429688 47.734375 144.601562 C 43.164062 101.039062 68.710938 59.429688 108.566406 44.367188 C 126.535156 37.582031 145.011719 37.53125 163.585938 38.25 C 173.484375 38.632812 180.644531 47.171875 180.574219 56.644531 C 180.5 66.101562 173.308594 74.1875 163.464844 75.035156 C 156.738281 75.613281 149.941406 75.25 143.167969 75.300781 C 110.53125 75.542969 84.652344 100.023438 84.257812 132.546875 C 83.851562 165.972656 109.152344 190.667969 139.582031 191.945312 C 164.195312 192.976562 188.886719 192.289062 213.542969 192.390625 C 216.4375 192.398438 219.367188 192.378906 222.222656 192.765625 C 231.964844 194.082031 239.066406 202.46875 238.488281 211.765625 C 237.902344 221.214844 230.164062 229.105469 220.53125 229.300781 C 206.511719 229.574219 192.484375 229.371094 178.464844 229.371094 C 178.464844 228.945312 178.464844 228.507812 178.457031 228.082031 Z M 178.457031 228.082031 " fill-opacity="1" fill-rule="nonzero"/></g></svg>