<svg xmlns="http://www.w3.org/2000/svg" xmlns:xlink="http://www.w3.org/1999/xlink" width="500" zoomAndPan="magnify" viewBox="0 0 375 374.999991" height="500" preserveAspectRatio="xMidYMid meet" version="1.0"><defs><clipPath id="2e7f1d32e1"><path d="M 85 115 L 315.226562 115 L 315.226562 306.75 L 85 306.75 Z M 85 115 " clip-rule="nonzero"/></clipPath><clipPath id="8dcd26cbe4"><path d="M 47 37.5 L 239 37.5 L 239 230 L 47 230 Z M 47 37.5 " clip-rule="nonzero"/></clipPath></defs><g clip-path="url(#2e7f1d32e1)"><path fill="#000000" d="M 166.308594 306.507812 C 145.546875 306.507812 124.789062 306.617188 104.019531 306.445312 C 96.007812 306.386719 89.179688 301.1875 86.90625 294.230469 C 84.355469 286.429688 86.390625 277.816406 93.167969 273.601562 C 97 271.222656 102.148438 269.996094 106.722656 269.957031 C 144.144531 269.664062 181.550781 269.914062 218.972656 269.722656 C 248.128906 269.570312 271.164062 250.304688 276.929688 221.785156 C 284.019531 186.734375 257.152344 153.019531 221.257812 152.460938 C 195.433594 152.054688 169.59375 152.378906 143.769531 152.351562 C 135.816406 152.339844 129.847656 148.835938 126.207031 141.722656 C 122.949219 135.339844 122.960938 128.351562 127.855469 123.488281 C 131.789062 119.566406 137.871094 115.625 143.070312 115.535156 C 171.769531 115.050781 200.570312 114.371094 229.171875 116.367188 C 269.980469 119.210938 303.917969 150.375 312.761719 190.257812 C 325.910156 249.582031 281.359375 305.847656 220.613281 306.488281 C 202.523438 306.667969 184.414062 306.507812 166.308594 306.507812 Z M 166.308594 306.507812 " fill-opacity="1" fill-rule="nonzero"/></g><g clip-path="url(#8dcd26cbe4)"><path fill="#000000" d="M 178.285156 228.117188 C 161.410156 228.117188 144.335938 229.796875 127.714844 227.78125 C 87.066406 222.859375 52.003906 185.457031 47.722656 144.621094 C 43.160156 101.046875 68.675781 59.433594 108.484375 44.367188 C 126.429688 37.582031 144.882812 37.53125 163.433594 38.25 C 173.316406 38.632812 180.46875 47.175781 180.398438 56.644531 C 180.328125 66.109375 173.144531 74.191406 163.3125 75.042969 C 156.597656 75.621094 149.808594 75.257812 143.039062 75.304688 C 110.445312 75.550781 84.597656 100.035156 84.203125 132.566406 C 83.800781 165.996094 109.070312 190.695312 139.457031 191.972656 C 164.042969 193.003906 188.703125 192.316406 213.328125 192.417969 C 216.222656 192.425781 219.144531 192.40625 221.996094 192.792969 C 231.730469 194.109375 238.820312 202.496094 238.246094 211.796875 C 237.65625 221.25 229.929688 229.140625 220.308594 229.332031 C 206.308594 229.605469 192.296875 229.402344 178.296875 229.402344 C 178.296875 228.976562 178.296875 228.542969 178.285156 228.117188 Z M 178.285156 228.117188 " fill-opacity="1" fill-rule="nonzero"/></g></svg>